<?xml version="1.0"?>
<svg fill="#000000" xmlns="http://www.w3.org/2000/svg" height="38" width="38"  viewBox="0 0 38.1 38">
    <path d="M34.1,10.3c-0.1-0.4-0.4-0.6-0.7-0.6h-6.9V7.5C26.5,3.4,23.1,0,19,0s-7.5,3.4-7.5,7.5v2.1H4.6c-0.4,0-0.7,0.3-0.7,0.6 L0,37.1c0,0.2,0,0.4,0.2,0.6C0.3,37.9,0.5,38,0.8,38h36.5c0.2,0,0.4-0.1,0.6-0.3c0.1-0.2,0.2-0.4,0.2-0.6L34.1,10.3z M13,7.5 c0-3.3,2.7-6,6-6s6,2.7,6,6v2.1H13V7.5z M1.6,36.5l3.6-25.4h6.3v3.1c0,0.4,0.3,0.8,0.8,0.8c0.4,0,0.8-0.3,0.8-0.8v-3.1H25v3.1 c0,0.4,0.3,0.8,0.8,0.8c0.4,0,0.8-0.3,0.8-0.8v-3.1h6.3l3.6,25.4H1.6z" />
</svg>
