<?xml version="1.0"?>
<svg fill="#000000" xmlns="http://www.w3.org/2000/svg"  height="38" width="38" viewBox="0 0 37.6 33.7">
    <path d="M18.8,33.7c-0.2,0-0.4-0.1-0.5-0.2L4,19.3C-1.8,13.4-0.6,6.8,3.1,3.1C6.7-0.4,13-1.7,18.8,3.5c5.8-5.3,12.1-4,15.7-0.4 c2,2,3.1,4.6,3.1,7.4c0,3.1-1.4,6.2-4,8.8l0,0L19.3,33.5C19.2,33.7,19,33.7,18.8,33.7z M10.5,1.5C8,1.5,5.8,2.6,4.2,4.2 C1,7.4,0,13.1,5.1,18.3L18.8,32l13.7-13.7c5.2-5.2,4.1-10.9,0.9-14.1S24.5,0,19.3,5.1c-0.3,0.3-0.8,0.3-1.1,0 C15.7,2.6,13,1.5,10.5,1.5z M33,18.8L33,18.8L33,18.8z" />
</svg>