<?xml version="1.0"?>
<svg fill="#000000" xmlns="http://www.w3.org/2000/svg" height="38" width="38" viewBox="0 0 38 38">
    <path d="M19,0C8.5,0,0,8.5,0,19s8.5,19,19,19s19-8.5,19-19S29.5,0,19,0z M19,36.5C9.4,36.5,1.5,28.6,1.5,19S9.4,1.5,19,1.5 S36.5,9.4,36.5,19S28.6,36.5,19,36.5z" />
    <path d="M22.7,21.7c2.3-1.3,3.8-3.7,3.8-6.5c0-4.1-3.4-7.5-7.5-7.5s-7.5,3.4-7.5,7.5c0,2.8,1.6,5.2,3.8,6.5c-3.2,1-6,3.2-8.1,6.5 c-0.2,0.3-0.1,0.8,0.2,1c0.1,0.1,0.3,0.1,0.4,0.1c0.3,0,0.5-0.1,0.6-0.3c2.6-4.1,6.4-6.4,10.5-6.4s7.9,2.3,10.5,6.3 c0.2,0.4,0.7,0.5,1.1,0.2c0.4-0.2,0.5-0.7,0.2-1.1C28.6,24.9,25.8,22.7,22.7,21.7z M13,15.2c0-3.3,2.7-6,6-6s6,2.7,6,6s-2.7,6-6,6 S13,18.4,13,15.2z" />
</svg>